<svg xmlns="http://www.w3.org/2000/svg"  viewBox="0 0 100 100" width="300px" height="300px"><path d="M39.366,93C34.753,93,31,89.247,31,84.634V82H20.366C15.753,82,12,78.247,12,73.634V34.229 c0-1.287,0.303-2.577,0.877-3.729l7.413-14.866C21.719,12.773,24.585,11,27.77,11h55.864C88.247,11,92,14.753,92,19.366v36.116 c0,2.019-0.728,3.969-2.049,5.49L74.219,79.114C72.625,80.949,70.323,82,67.898,82h-9.66l-10.48,8.983 C46.245,92.283,44.309,93,42.31,93H39.366z" opacity=".35"/><path fill="#f2f2f2" d="M37.366,91C32.753,91,29,87.247,29,82.634V80H18.366C13.753,80,10,76.247,10,71.634V32.229 c0-1.287,0.303-2.577,0.877-3.729l7.413-14.866C19.719,10.773,22.585,9,25.77,9h55.864C86.247,9,90,12.753,90,17.366v36.116 c0,2.019-0.728,3.969-2.049,5.49L72.219,77.114C70.625,78.949,68.323,80,65.898,80h-9.66l-10.48,8.983 C44.245,90.283,42.309,91,40.31,91H37.366z"/><path fill="#707cc0" d="M83.042,54.712L67.308,72.856c-0.355,0.409-0.869,0.644-1.411,0.644H54.512 c-0.438,0-0.862,0.156-1.194,0.442l-11.79,10.107c-0.339,0.291-0.771,0.451-1.218,0.451h-2.943c-1.031,0-1.866-0.836-1.866-1.866 v-7.267c0-1.031-0.836-1.866-1.866-1.866H18.366c-1.031,0-1.866-0.836-1.866-1.866V32.229c0-0.289,0.067-0.574,0.196-0.833 l7.41-14.864c0.316-0.632,0.96-1.033,1.664-1.033h55.863c1.031,0,1.866,0.836,1.866,1.866v36.116 C83.5,53.935,83.338,54.371,83.042,54.712z"/><path fill="#40396e" d="M40.31,86h-2.943C35.51,86,34,84.49,34,82.634v-7.268C34,75.164,33.836,75,33.634,75H18.366 C16.51,75,15,73.49,15,71.634V32.229c0-0.518,0.122-1.037,0.353-1.501l7.411-14.863C23.339,14.714,24.491,14,25.77,14h55.864 C83.49,14,85,15.51,85,17.366v36.116c0,0.813-0.293,1.6-0.825,2.212L68.441,73.839C67.8,74.577,66.874,75,65.898,75H54.512 c-0.08,0-0.156,0.028-0.215,0.079L42.504,85.188C41.893,85.712,41.114,86,40.31,86z M25.77,17c-0.134,0-0.26,0.08-0.322,0.204 l-7.41,14.861C18.013,32.116,18,32.172,18,32.229v39.405C18,71.836,18.164,72,18.366,72h15.268C35.49,72,37,73.51,37,75.366v7.268 C37,82.836,37.164,83,37.366,83h2.943c0.088,0,0.174-0.032,0.242-0.09l11.791-10.107C52.943,72.285,53.714,72,54.512,72h11.386 c0.106,0,0.208-0.046,0.278-0.127l15.733-18.145C81.968,53.661,82,53.574,82,53.482V17.366C82,17.164,81.836,17,81.634,17H25.77z"/><path fill="#f2f2f2" d="M78,51.49c-4.087,4.087-6.422,6.422-10.51,10.51c0,0-6.991,0-11.365,0 C51.751,65.733,47.374,69.466,43,73.199c0-3.733,0-7.466,0-11.199c-5.001-0.015-9.999-0.03-15-0.045C28,48.282,28,34.651,28,21h50 V51.49z"/><rect width="6" height="19" x="44" y="32" fill="#9aa2e6"/><g><rect width="6" height="19" x="61" y="32" fill="#9aa2e6"/></g></svg>